<?xml version="1.0" encoding="UTF-8"?>
<svg width="364px" height="427px" viewBox="0 0 364 427" version="1.1" xmlns="http://www.w3.org/2000/svg" xmlns:xlink="http://www.w3.org/1999/xlink">
    <title>Group 13</title>
    <defs>
        <path d="M0,35.4735903 C0,213.668409 0,220.44447 0,400.67202 C0,409.010805 4.15772349,414.088404 9.6120977,419.110188 C15.0664719,424.131971 26.2569321,426.637145 31.4954735,426.637145 C137.333439,426.637145 232.444855,427.453569 244.055053,426.637145 C279.455331,424.147814 347.629991,413.178908 362.518803,322.999497 C370.233702,276.271449 347.810981,237.994937 295.250639,208.169961 C335.776259,165.038465 351.227941,123.866574 341.605685,84.654287 C327.1723,25.8358561 275.667852,3.75102115 244.055053,1.00794824 C226.055295,-0.553908068 43.6643983,-0.0989395785 31.4954735,1.00794824 C21.6200309,1.90622046 12.7980947,7.55816456 8.1644838,13.8895362 C3.53087288,20.2209079 0,29.7890994 0,35.4735903 Z" id="path-1"></path>
    </defs>
    <g id="Page-1" stroke="none" stroke-width="1" fill="none" fill-rule="evenodd">
        <g id="Group-13">
            <mask id="mask-2" fill="white">
                <use xlink:href="#path-1"></use>
            </mask>
            <use id="B" fill="#F50000" xlink:href="#path-1"></use>
            <path d="M74,-39.5264097 C74,138.668409 74,145.44447 74,325.67202 C74,334.010805 78.1577235,339.088404 83.6120977,344.110188 C89.0664719,349.131971 100.256932,351.637145 105.495473,351.637145 C211.333439,351.637145 306.444855,352.453569 318.055053,351.637145 C353.455331,349.147814 421.629991,338.178908 436.518803,247.999497 C444.233702,201.271449 421.810981,162.994937 369.250639,133.169961 C409.776259,90.0384655 425.227941,48.8665742 415.605685,9.65428695 C401.1723,-49.1641439 349.667852,-71.2489789 318.055053,-73.9920518 C300.055295,-75.5539081 117.664398,-75.0989396 105.495473,-73.9920518 C95.6200309,-73.0937795 86.7980947,-67.4418354 82.1644838,-61.1104638 C77.5308729,-54.7790921 74,-45.2109006 74,-39.5264097 Z" id="B" fill="#0600FE" style="mix-blend-mode: difference;" mask="url(#mask-2)"></path>
            <path d="M0,35.4735903 C0,213.668409 0,220.44447 0,400.67202 C0,409.010805 4.15772349,414.088404 9.6120977,419.110188 C15.0664719,424.131971 26.2569321,426.637145 31.4954735,426.637145 C137.333439,426.637145 232.444855,427.453569 244.055053,426.637145 C279.455331,424.147814 347.629991,413.178908 362.518803,322.999497 C370.233702,276.271449 347.810981,237.994937 295.250639,208.169961 C335.776259,165.038465 351.227941,123.866574 341.605685,84.654287 C327.1723,25.8358561 275.667852,3.75102115 244.055053,1.00794824 C226.055295,-0.553908068 43.6643983,-0.0989395785 31.4954735,1.00794824 C21.6200309,1.90622046 12.7980947,7.55816456 8.1644838,13.8895362 C3.53087288,20.2209079 0,29.7890994 0,35.4735903 Z" id="B" fill="#01A9F4" style="mix-blend-mode: difference;" mask="url(#mask-2)"></path>
            <path d="M-75,110.47359 C-75,288.668409 -75,295.44447 -75,475.67202 C-75,484.010805 -70.8422765,489.088404 -65.3879023,494.110188 C-59.9335281,499.131971 -48.7430679,501.637145 -43.5045265,501.637145 C62.3334385,501.637145 157.444855,502.453569 169.055053,501.637145 C204.455331,499.147814 272.629991,488.178908 287.518803,397.999497 C295.233702,351.271449 272.810981,312.994937 220.250639,283.169961 C260.776259,240.038465 276.227941,198.866574 266.605685,159.654287 C252.1723,100.835856 200.667852,78.7510211 169.055053,76.0079482 C151.055295,74.4460919 -31.3356017,74.9010604 -43.5045265,76.0079482 C-53.3799691,76.9062205 -62.2019053,82.5581646 -66.8355162,88.8895362 C-71.4691271,95.2209079 -75,104.789099 -75,110.47359 Z" id="B" fill="#8EECF9" style="mix-blend-mode: difference;" mask="url(#mask-2)"></path>
            <path d="M-150,188.47359 C-150,366.668409 -150,373.44447 -150,553.67202 C-150,562.010805 -145.842277,567.088404 -140.387902,572.110188 C-134.933528,577.131971 -123.743068,579.637145 -118.504527,579.637145 C-12.6665615,579.637145 82.4448546,580.453569 94.0550531,579.637145 C129.455331,577.147814 197.629991,566.178908 212.518803,475.999497 C220.233702,429.271449 197.810981,390.994937 145.250639,361.169961 C185.776259,318.038465 201.227941,276.866574 191.605685,237.654287 C177.1723,178.835856 125.667852,156.751021 94.0550531,154.007948 C76.0552948,152.446092 -106.335602,152.90106 -118.504527,154.007948 C-128.379969,154.90622 -137.201905,160.558165 -141.835516,166.889536 C-146.469127,173.220908 -150,182.789099 -150,188.47359 Z" id="B" fill="#3401F4" style="mix-blend-mode: difference;" mask="url(#mask-2)"></path>
        </g>
    </g>
</svg>